<svg width="50" height="36" fill="none" xmlns="http://www.w3.org/2000/svg"><path d="M0 7.282c0-1.14.924-2.065 2.065-2.065h20.13c1.14 0 2.064.924 2.064 2.065V28.96c0 1.14-.924 2.065-2.064 2.065H2.065A2.065 2.065 0 0 1 0 28.96V7.282Z" fill="url('#paint0_linear_2731_5482')"/><path d="m27.743 35.412-23.55-4.58 34.002.386-10.452 4.194Z" fill="url('#paint1_linear_2731_5482')"/><path d="M0 7.008C0 5.98.756 5.109 1.773 4.964l13.936-1.991a2.065 2.065 0 0 1 2.356 2.044v26.208a2.065 2.065 0 0 1-2.356 2.044l-13.936-1.99A2.065 2.065 0 0 1 0 29.233V7.008Z" fill="url('#paint2_linear_2731_5482')"/><g filter="url('#filter0_d_2731_5482')"><path d="M15.485 18.121a1.548 1.548 0 1 1-3.097 0 1.548 1.548 0 0 1 3.097 0Z" fill="url('#paint3_linear_2731_5482')"/></g><g filter="url('#filter1_d_2731_5482')"><path d="M13.162 18.25a.774.774 0 1 1 1.549 0v2.58a.774.774 0 0 1-1.549 0v-2.58Z" fill="url('#paint4_linear_2731_5482')"/></g><path fill-rule="evenodd" clip-rule="evenodd" d="M55.556 10.082h-3.404c-3.055 0-4.582 1.489-4.582 4.467v6.893c0 2.979 1.527 4.468 4.582 4.468h3.404c3.055 0 4.583-1.49 4.583-4.468V14.55c0-2.978-1.528-4.467-4.583-4.467Zm1.702 11.36c0 1.617-.829 2.426-2.487 2.426h-1.833c-1.658 0-2.488-.809-2.488-2.426V14.55c0-1.616.83-2.425 2.488-2.425h1.833c1.658 0 2.487.809 2.487 2.425v6.893Zm-12.134 4.476c.263 0 .394-.132.394-.395v-1.32c0-.263-.131-.395-.394-.395h-7.489V10.486c0-.264-.131-.396-.394-.396H35.14c-.263 0-.394.132-.394.396v15.037c0 .263.132.395.394.395h9.985Zm50.89-15.836h3.403c3.055 0 4.582 1.489 4.582 4.467v6.893c0 2.979-1.527 4.468-4.582 4.468h-3.404c-3.055 0-4.582-1.49-4.582-4.468V14.55c0-2.978 1.527-4.467 4.582-4.467Zm2.618 13.786c1.658 0 2.487-.809 2.487-2.426V14.55c0-1.616-.829-2.425-2.487-2.425h-1.833c-1.659 0-2.488.809-2.488 2.425v6.893c0 1.617.83 2.426 2.488 2.426h1.833Zm-24.275-7.3H69.01c-.267 0-.401.13-.401.39v1.297c0 .26.134.39.401.39h2.808v2.724c0 1.643-.847 2.465-2.54 2.465h-1.605c-1.694 0-2.54-.822-2.54-2.465v-6.746c0-1.644.846-2.465 2.54-2.465h5.616c.267 0 .4-.13.4-.39v-1.297c0-.26-.133-.39-.4-.39H66.87c-3.12 0-4.68 1.514-4.68 4.542v6.746c0 3.027 1.56 4.54 4.68 4.54h3.209c3.12 0 4.68-1.513 4.68-4.54v-4.411c0-.26-.134-.39-.402-.39Zm2.855-6.486h11.766c.267 0 .4.132.4.395v1.32c0 .263-.133.395-.4.395h-4.413v13.322c0 .264-.133.396-.4.396h-2.14c-.267 0-.401-.132-.401-.396V12.192h-4.412c-.268 0-.401-.132-.401-.396v-1.319c0-.263.133-.395.4-.395Z" fill="#fff"/><defs><linearGradient id="paint0_linear_2731_5482" x1=".581" y1="19.024" x2="24.598" y2="11.341" gradientUnits="userSpaceOnUse"><stop stop-color="#FFF06A"/><stop offset="1" stop-color="#EC78FF"/></linearGradient><linearGradient id="paint1_linear_2731_5482" x1="14.258" y1="31.605" x2="28.84" y2="34.573" gradientUnits="userSpaceOnUse"><stop stop-color="#ECB6FF"/><stop offset="1" stop-color="#FFF4F4" stop-opacity="0"/></linearGradient><linearGradient id="paint2_linear_2731_5482" x1="-1.484" y1="20.379" x2="19.485" y2="15.863" gradientUnits="userSpaceOnUse"><stop stop-color="#492EF3"/><stop offset="1" stop-color="#CF69FF"/></linearGradient><linearGradient id="paint3_linear_2731_5482" x1="13.936" y1="16.573" x2="13.291" y2="19.669" gradientUnits="userSpaceOnUse"><stop stop-color="#E1BFFF"/><stop offset="1" stop-color="#AF68EE"/></linearGradient><linearGradient id="paint4_linear_2731_5482" x1="13.936" y1="17.476" x2="12.107" y2="20.768" gradientUnits="userSpaceOnUse"><stop stop-color="#F8F2FF"/><stop offset="1" stop-color="#D185F5"/></linearGradient><filter id="filter0_d_2731_5482" x="11.206" y="16.573" width="5.46" height="5.461" filterUnits="userSpaceOnUse" color-interpolation-filters="sRGB"><feFlood flood-opacity="0" result="BackgroundImageFix"/><feColorMatrix in="SourceAlpha" values="0 0 0 0 0 0 0 0 0 0 0 0 0 0 0 0 0 0 127 0" result="hardAlpha"/><feOffset dy="1.182"/><feGaussianBlur stdDeviation=".591"/><feComposite in2="hardAlpha" operator="out"/><feColorMatrix values="0 0 0 0 0.104304 0 0 0 0 0.0825 0 0 0 0 0.2 0 0 0 0.02 0"/><feBlend in2="BackgroundImageFix" result="effect1_dropShadow_2731_5482"/><feBlend in="SourceGraphic" in2="effect1_dropShadow_2731_5482" result="shape"/></filter><filter id="filter1_d_2731_5482" x="8.435" y="17.476" width="8.64" height="12.402" filterUnits="userSpaceOnUse" color-interpolation-filters="sRGB"><feFlood flood-opacity="0" result="BackgroundImageFix"/><feColorMatrix in="SourceAlpha" values="0 0 0 0 0 0 0 0 0 0 0 0 0 0 0 0 0 0 127 0" result="hardAlpha"/><feOffset dx="-1.182" dy="4.727"/><feGaussianBlur stdDeviation="1.773"/><feComposite in2="hardAlpha" operator="out"/><feColorMatrix values="0 0 0 0 0.104304 0 0 0 0 0.0825 0 0 0 0 0.2 0 0 0 0.08 0"/><feBlend in2="BackgroundImageFix" result="effect1_dropShadow_2731_5482"/><feBlend in="SourceGraphic" in2="effect1_dropShadow_2731_5482" result="shape"/></filter></defs></svg>